<?xml version="1.0" standalone="no"?>
<!DOCTYPE svg PUBLIC "-//W3C//DTD SVG 20010904//EN"
 "http://www.w3.org/TR/2001/REC-SVG-20010904/DTD/svg10.dtd">
<svg version="1.0" xmlns="http://www.w3.org/2000/svg"
 width="212.000000pt" height="237.000000pt" viewBox="0 0 212.000000 237.000000"
 preserveAspectRatio="xMidYMid meet">
<metadata>
Created by potrace 1.10, written by Peter Selinger 2001-2011
</metadata>
<g transform="translate(0.000000,237.000000) scale(0.050000,-0.050000)"
fill="#ffffff" stroke="none">
<path d="M1100 4486 c-216 -113 -299 -711 -151 -1088 10 -25 -10 -36 -93 -55
-400 -90 -797 -412 -796 -644 2 -241 385 -555 805 -660 52 -13 91 -29 87 -36
-67 -108 -95 -662 -42 -837 122 -408 560 -388 1081 49 l141 118 99 -88 c736
-656 1283 -400 1121 525 -17 99 -33 196 -37 216 -4 28 27 46 145 86 949 322
941 945 -15 1250 -154 49 -156 51 -126 155 111 385 33 871 -159 1000 -191 127
-633 -37 -950 -353 l-79 -79 -101 90 c-341 307 -731 455 -930 351z m332 -95
c125 -38 307 -148 489 -297 l141 -116 -107 -116 c-59 -64 -152 -176 -205 -249
-89 -121 -104 -133 -169 -133 -65 0 -326 -39 -473 -70 l-62 -14 -28 127 c-48
217 -38 648 17 751 76 142 195 177 397 117z m1694 -11 c124 -98 173 -479 106
-825 -33 -171 -21 -163 -197 -127 -82 17 -214 37 -294 45 -134 12 -148 18
-198 83 -29 38 -119 150 -200 248 l-147 179 86 74 c376 323 690 444 844 323z
m-903 -585 c48 -58 120 -145 160 -195 l71 -90 -327 0 c-180 0 -327 3 -327 7 0
13 311 382 323 383 6 0 52 -47 100 -105z m131 -388 l179 -13 101 -162 c56 -89
148 -245 204 -347 l102 -186 -72 -134 c-180 -333 -320 -550 -364 -567 -86 -33
-757 -22 -792 12 -71 72 -392 640 -392 695 0 25 209 402 332 599 69 111 239
136 702 103z m-813 -92 c-79 -122 -261 -451 -261 -473 0 -12 -7 -22 -16 -22
-22 0 -191 460 -175 476 16 16 353 79 438 82 l57 2 -43 -65z m1371 35 c98 -17
198 -35 222 -40 l43 -10 -60 -165 c-33 -91 -76 -201 -95 -245 l-35 -80 -66
129 c-36 72 -109 200 -163 285 -110 179 -119 172 154 126z m-1891 -205 c25
-74 76 -206 113 -293 l67 -158 -79 -185 c-44 -102 -94 -235 -112 -296 l-32
-111 -144 51 c-557 199 -793 489 -594 730 102 124 595 394 723 397 8 0 34 -61
58 -135z m2519 36 c739 -295 705 -706 -85 -1002 -96 -36 -177 -62 -180 -57 -3
4 -26 71 -52 148 -26 77 -77 205 -114 285 l-66 145 66 145 c37 80 87 209 112
288 l46 143 81 -25 c45 -14 132 -46 192 -70z m-2218 -726 c35 -69 108 -195
163 -281 55 -86 95 -160 90 -166 -22 -22 -495 67 -495 93 0 21 167 479 175
479 2 0 33 -56 67 -125z m1769 -116 c52 -132 91 -244 87 -248 -13 -12 -504
-92 -512 -83 -5 4 32 69 81 145 48 75 121 202 162 282 91 178 71 189 182 -96z
m145 -461 c77 -312 27 -742 -98 -847 -160 -135 -498 -18 -843 293 l-96 86 112
130 c62 72 148 181 193 244 78 111 83 114 193 126 62 7 194 28 293 48 226 45
215 49 246 -80z m-1856 52 c105 -16 213 -30 240 -30 35 0 63 -21 94 -68 23
-37 111 -148 194 -248 l150 -181 -104 -88 c-498 -421 -857 -454 -956 -87 -28
101 -13 522 22 659 l26 97 72 -12 c40 -7 158 -26 262 -42z m1064 -60 c-6 -11
-79 -104 -163 -207 l-151 -186 -57 66 c-110 129 -273 332 -273 339 0 4 148 8
328 8 213 0 324 -7 316 -20z"/>
<path d="M2004 3057 c-99 -28 -213 -154 -241 -265 -88 -349 324 -609 599 -377
312 262 37 756 -358 642z m216 -200 c0 -13 6 -18 13 -11 56 56 95 -200 41
-266 -94 -115 -334 -47 -334 95 1 94 20 168 40 155 9 -5 21 4 27 20 15 37 213
43 213 7z"/>
<path d="M3140 540 c0 -22 13 -40 30 -40 17 0 30 18 30 40 0 22 -13 40 -30 40
-17 0 -30 -18 -30 -40z"/>
<path d="M225 340 c0 -201 4 -220 38 -220 31 0 37 16 37 90 0 142 120 119 178
-35 12 -30 35 -55 52 -55 41 0 38 15 -20 117 -45 79 -47 90 -20 129 74 106 3
194 -158 194 l-108 0 1 -220z m213 124 c28 -53 -10 -104 -79 -104 -54 0 -59 6
-59 70 0 81 99 106 138 34z"/>
<path d="M2100 340 c0 -180 5 -220 29 -220 23 0 31 37 35 175 l6 175 90 -175
c137 -266 180 -255 180 46 0 199 -4 221 -35 215 -29 -5 -33 -29 -30 -176 5
-190 7 -191 -117 35 -123 225 -158 208 -158 -75z"/>
<path d="M1680 504 c0 -20 -11 -48 -25 -62 -20 -22 -20 -29 0 -36 16 -6 25
-50 25 -124 0 -63 11 -125 24 -138 35 -35 136 -31 136 6 0 19 -19 30 -50 30
-47 0 -50 6 -50 110 0 104 3 110 50 110 33 0 50 11 50 32 0 24 -13 30 -50 23
-42 -8 -50 -2 -50 38 0 28 -12 47 -30 47 -16 0 -30 -16 -30 -36z"/>
<path d="M2900 501 c0 -21 -9 -44 -21 -52 -13 -8 -14 -21 -2 -36 10 -13 22
-76 27 -140 6 -70 21 -124 38 -135 44 -27 143 -22 133 7 -5 14 -21 25 -37 26
-104 1 -120 229 -16 229 40 0 58 9 53 25 -5 14 -30 25 -57 25 -34 1 -50 13
-54 45 -8 55 -64 60 -64 6z"/>
<path d="M653 419 c-57 -45 -73 -163 -33 -238 39 -74 260 -97 260 -28 0 22
-16 26 -68 16 -81 -15 -152 18 -152 71 0 34 13 38 115 34 138 -5 167 46 77
136 -61 61 -129 64 -199 9z m163 -43 c42 -42 26 -56 -66 -56 -49 0 -90 7 -90
16 0 30 48 64 90 64 23 0 53 -11 66 -24z"/>
<path d="M1005 447 c-62 -25 -21 -59 69 -58 75 1 96 -6 102 -34 6 -29 -8 -35
-73 -35 -91 0 -143 -40 -143 -109 0 -60 46 -97 115 -92 30 2 80 3 110 3 54 0
55 1 55 129 0 178 -91 254 -235 196z m175 -206 c0 -68 -130 -111 -153 -51 -21
56 9 90 82 90 57 0 71 -8 71 -39z"/>
<path d="M1405 447 c-171 -72 -54 -380 126 -335 80 20 63 72 -19 57 -56 -10
-73 -5 -100 34 -71 102 -16 207 102 193 53 -6 66 -1 62 23 -6 31 -119 50 -171
28z"/>
<path d="M2565 447 c-62 -25 -21 -59 69 -58 75 1 96 -6 102 -34 6 -29 -8 -35
-73 -35 -124 0 -180 -82 -116 -169 16 -23 48 -35 85 -32 32 2 83 3 113 3 54 0
55 1 55 129 0 178 -91 254 -235 196z m175 -203 c0 -49 -39 -84 -95 -84 -50 0
-76 41 -58 90 18 46 153 41 153 -6z"/>
<path d="M3153 447 c-29 -30 -14 -327 17 -327 24 0 30 32 30 170 0 156 -11
192 -47 157z"/>
<path d="M3280 439 c0 -80 113 -319 150 -319 41 0 172 305 144 333 -23 23 -52
-17 -85 -118 -49 -151 -59 -152 -112 -13 -43 114 -97 178 -97 117z"/>
<path d="M3689 411 c-142 -142 57 -388 228 -283 53 33 19 54 -64 41 -91 -13
-153 20 -153 83 0 25 21 28 120 16 l120 -13 0 62 c0 130 -156 189 -251 94z
m187 -56 c6 -29 -8 -35 -85 -35 -50 0 -91 7 -91 16 0 67 164 85 176 19z"/>
</g>
</svg>
